<?xml version="1.0" encoding="utf-8"?>
<svg xmlns="http://www.w3.org/2000/svg" viewBox="132.9706 76.2196 96.3599 86.239" width="96.3599px" height="86.239px"><g id="Layer_4" transform="matrix(1, 0, 0, 1, 19.44551658630371, -69.15544891357422)"><path class="cls-1" d="M 176.119 197.404 C 171.684 202.138 169.518 204.756 167.039 208.031 L 168.74 212.667 L 175.693 231.614 L 190.908 231.614 L 176.119 197.404 L 176.119 197.404 Z" style="fill: rgb(38, 147, 144);"/><g transform="matrix(0.447479, 0, 0, 0.447479, 86.564476, 133.928864)"><path class="cls-1" d="M122.35,140.27l24.1-65.68,15.88,43.28c7.71-9.76,15.19-18.64,22.36-26.68l-20.04-52.53h-35.87l-33.02,86.55c9.11,5.3,18.57,10.66,26.58,15.06Z" style="fill: rgb(38, 147, 144);"/><path class="cls-1" d="M90.33,139.44l-30.08,78.85h33.46l15.54-42.34h.06c.03-.08.06-.17.1-.29.14-.43.32-.86.51-1.27.03-.1.07-.19.12-.27,0,0,0-.02.01-.03,0,0,0,0,0,0,.02-.03.04-.05.06-.08.66-2.31,1.34-4.24,2.22-6.44,0,0,0,0,0,0-8.48-10.67-16.76-21.33-22.01-28.13Z" style="fill: rgb(38, 147, 144);"/><path class="cls-1" d="M177.92,160.35l21.26,57.94s0,0,0,0c3.99-3.99,9.62-2.94,15.39-1.26.33-.06.66-.12.97-.19.29-.07.58-.11.87-.17.17-.07.34-.14.52-.2,1.51-.53,3.17-.45,4.74-.57,2.23-.17,4.48.28,6.71.15.67-.04,1.35.06,2,.24l2.2.61.05-.05-34.8-91.21c-7.69,12.44-14.3,24.23-19.91,34.72Z" style="fill: rgb(38, 147, 144);"/></g><path class="cls-2" d="M 149.834 203.946 C 149.212 204.841 127.643 192.213 127.643 192.213 C 127.643 192.213 151.709 223.707 153.105 222.883 C 156.398 220.932 173.25 173.701 209.885 145.375 C 209.885 145.375 182.965 156.106 149.838 203.946 L 149.834 203.946 Z" style="fill: rgb(238, 125, 88);"/></g></svg>